<mxfile host="app.diagrams.net" modified="2021-05-16T11:55:39.882Z" agent="5.0 (Macintosh; Intel Mac OS X 10_14_6) AppleWebKit/537.36 (KHTML, like Gecko) Chrome/90.0.4430.93 Safari/537.36" etag="QLjqN7OOuwYbBRpI_eHr" version="14.6.11" type="github">
  <diagram id="AGNpMNlJ39d655uYhfhE" name="Page-1">
    <mxGraphModel dx="1577" dy="1023" grid="1" gridSize="10" guides="1" tooltips="1" connect="1" arrows="0" fold="1" page="1" pageScale="1" pageWidth="827" pageHeight="1169" math="0" shadow="0">
      <root>
        <mxCell id="0" />
        <mxCell id="1" parent="0" />
        <mxCell id="RRCWeZ-eteyDnXMSMMr3-25" value="" style="rounded=1;whiteSpace=wrap;html=1;fontColor=#7EA6E0;shadow=0;strokeWidth=2;" parent="1" vertex="1">
          <mxGeometry x="80" y="130" width="480" height="400" as="geometry" />
        </mxCell>
        <mxCell id="RRCWeZ-eteyDnXMSMMr3-1" value="" style="points=[[0.015,0.015,0],[0.985,0.015,0],[0.985,0.985,0],[0.015,0.985,0],[0.25,0,0],[0.5,0,0],[0.75,0,0],[1,0.25,0],[1,0.5,0],[1,0.75,0],[0.75,1,0],[0.5,1,0],[0.25,1,0],[0,0.75,0],[0,0.5,0],[0,0.25,0]];verticalLabelPosition=bottom;html=1;verticalAlign=top;aspect=fixed;align=center;pointerEvents=1;shape=mxgraph.cisco19.rect;prIcon=l2_switch;fillColor=#b1ddf0;strokeColor=#10739e;" parent="1" vertex="1">
          <mxGeometry x="286.38" y="210" width="50" height="50" as="geometry" />
        </mxCell>
        <mxCell id="RRCWeZ-eteyDnXMSMMr3-4" value="" style="shape=image;verticalLabelPosition=bottom;labelBackgroundColor=#ffffff;verticalAlign=top;aspect=fixed;imageAspect=0;image=data:image/png,iVBORw0KGgoAAAANSUhEUgAAAJYAAAC6CAYAAABMb7SvAAAgAElEQVR4Ae1dh1eU1/b9/UnvpWiaxqhJNM1oemKSl/JS3stLVbEBKiqCihUVu1IGhqEMfei9996LUpWmoKKo+7f2wTEDDDDfOAgzfHct1gxTvnLvnnvPPWefff4PalN7YBZ64P9m4ZjqIdUegAosFQSz0gMqsGalW9WDqsBSMTArPaACa1a6VT2oCiwVA7PSAyqwZqVb1YOqwFIxMCs9oAJrVrpVPagKLBUDs9IDKrBmpVvVg6rAUjEwKz2gAmtWulU9qAosFQOz0gMqsGalW9WDqsBSMTArPaACa1a6VT2oCiwVA7PSAyqwZqVb1YOqwFIxMCs9oAJrVrpVPagKLBUDs9IDKrAUduuDhw9x7/4D+bs7+gDGP742+uAB+L7aoGbpTAeC+w8eYuTefQzduYeB4RF09g+hvPU6MmvakVrVhvjSFsQUNSOhrFX+z6rtQFV7L7oHhzF46y6G79zD3dH7ePBg4YFNnbEmIItgunN3FD03bqG05Rp0OXVwC83D16cS8cGhGLy3PxKrPfR4y1OP1fvCsdpdj7c89GOveejl/Q8Ox+Db04lwD89HeH4DKtqu4/rN2wLShTKjqcB6BKzR+w/QPzyCvPpO+CSU4T8XUrDOKxpv7AnDq67BWLxFg+c2BWCRkwYvbAvEq7t0WLE3bOxvdyiW7AjG4q2BeN5Jg+edAvDC1kAsc9Vh1d5wfHgoGr9eSsP55EoUNXXjxu27smxOwLRD/bvggcUZ6tqNWwjPb8SvvukCphVuIVi8JRDPbfLH0h3B+PF0Ijz1BbicXoOIwmYkVlxBWk07Mmo7kFHXIY9p1VeRUN6G8IImXEitwr6wPHx3Kh6vuGgFkC9uDcRKt1B8eDgafwVkIqakBf1Dd8DzO2JbsMCijd0zOAxdbr3MTm97RGDRFo3MTGsORGKnLgcBmTVIq25HbWef2E0379zDvQcPpsHBmGHPGalzYAjV7X1IrrwC3/RqbA/Kwtseejy/WSMzG5fU3y6nI6KwCX1Dd+BoNv+CBNatkXvIqGmHc1CO2EjPbgzAy9uD8PPZJFxIrUZufReu9t0UW2saFFn8Fs/Xev0GMms7cCa5Et+dSsALnBGd/PGuRwR2h+Qhv7HbZuez+MJm8YMLDlit1wbhk1iOT47FgssTB/h7n0T4Z9SKkT08cncWuxtiX5W0XJPl8ktvAxZv1uCl7UFYf8KAi2nV6Oy/Oavnf1oHXzDAoi1T0NQN56BsLN8Vgmc2BeD9g1E4YShFSfM13Lk3+rT6XM7DWSyvoRtHootliXxmk79sFPaE5qHySq/d+8MWBLBGRu8jqfIKfjybJLPUEpdg/OmXgcSKNgzeHnmqgJp4soGhO4gubsEvF1NlOeaSTNsrq75TnLATP28v/zs8sOjg1Bc247PjcWI4v+Wux9GYYtR39QOYHzsy+rY4S3Hn+fruUNlE/OtUAuLL2+wWXA4NrDv37iO8sAnve0WDS80HXlEIyKgRZ+V8/OXTs38uqQLveEbgmY3++PRYnN2Cy2GBxVBKVGkL1h6KxrNOAfjoSDT0BY24eWd2jfMnBSydtJrMWrx3IFJ+DJxpk6uu2p2/yyGBxaUlo6YDnx6Pw3ObCaoYRBU3gQazPbQbt0cQmF2Ld/dHyPV/eyYRRc099nDpj6/R4YBFUFVd7cV/z6fgha0avOcZAX1+o92AyjgynLn80mokJPTitiA4+WeiqXtgnliFxquc+tHhgNU9OIRdwTlY4qzF626h8E2tEmbC1F0wf99hqOmUoVRijst26HAwolC89PP3iv++MocC1vDIPWiya/H63jBxOu4Lz0d7n20cjvcfPkT/8B009QygrPW6xAgTK9vAv6SqK8iq60R523U0XxsUyoytQjScpVyCsiWozaUxorBRqDh/D+H8fOYwwKIDtKz1Gj45HodFWwLxw9kkAcCTOhRu3R1FffeABJ59Esrxp28aPjsSgzf2hgvD4dWdOixzC8GqfeH44lgsNgVk4FxyJVKqrqKpZ1CoMk8y9A8fPkROfRfopWcsk/YWXSW2Au6TXNt033UYYNEmORhZiKWuWry+OwTRxc1PNKj0xDd0DyAkrwE/n0vG0h06AewrzkFYsStEYoyM873nEYF3PCLEFqJHnw5O0meW7QrBb5fSEFnUhJZrg080y3DTEZhVh1d3BGP5Lh184kvnvc3oEMC6/+ABChq6sXqfXrhS7mF56Oofnu4HNfV7DyE0mqiiJvx4JlFsNRrPK3eH4eOjsdjglwlvQ6m4LtIqryCnpgMp5W0Iza3H0dgS/OGbLtSYFbtDwe+Ry/XrxVRhmXIptbYRnM6BWTJrkd8lYZ95TLlxCGDRyN2ty8XLzlq85RmB/MYucAlR2rijbO4ZhHdcKVbuDcPirRqs2BWKn84mIzCrFg1dAxi4NYLbd0eF605y4P1H/Hd6+LlscuYkXeZSWjW+80nEazt1chyyTs8nVwhrwopLE3ozKTgE7BLXYByMKhRbTuk9Pq3P2z2wCIbi5h6xcV5y1sIrqtgqzzptNLoptgVm4dUdOry4PQifHItDUFYd2vuHJEhtKVR5TQQfqTIXU6rESUtG6fKdIXALzUVjz6BVQeaO/iGh2HCpXXcoGrUdfVb9gJ4GuOweWJxBTiWU4mUXLd7cpxdDd1ThEiG+r/Ze/OWbJjbSUtdgbNZkCY3m9siTsR64Uy1o7Mbvl9LwirMWS1y0QvrjzKh05mImENmrtN+W7dLBN60aPP58bHYPLO68vj5pkEFzCsgU5qbSjm67fgN7QvIEVMt2BMNdny+zDQFnrnGAaVCTKTpw66483hoZxVSApquCOznn4GwBFu2uQ1FF6BoYMnf4aV8jIH+5kIKXnYPw07lkdA5YaUtOe5Ynf9OugcUBTuYveGcIXtsVgsjCRsUsTILjUlqNLH+0XXaG5IodZK5rmb1DMGRWX5VgMblT27U52BuWj0upVcir7xLDn/aWudbYMwCngAzxsa3cHSo7zlt3lc04TEXTZNXIDP2GezjyGrpAW2++NbsGVu/N2zgWWyIDteZglBjeijr4IYQuvMYrCou2avDzhRS0XLsx6RCcia703cTFtCp8eypBXA1MjKBhvmynTh75P3elP55JgjanDl2Dw5MCx5wAazr68OXJeDkfWawlrdcnnW+6FziH0kFLUPGHwMyfG7fmX2DdroHFLTiXBdpEG/0z0TukbDvfPTCM/RGFeN7JH+u8osBMm4m7SWY65zd04TffdCzfPZa9Q8P+g0PR+O1SKpz8M/C/C6lYczBSXB000lfuDcXmwCyUt12bNJswWzqmpFlyErnrPGkoVRymudJ7U2KhJCxyBmSC7Hxrdg0shlDe3BeO5W4h8LPCkE0sb8Mq93AB5v6IAjALx7RxqeXyRuYpd2IvbAvCX77p4nzlrMHZp76zX9wL5LEzhYzOVHrICT4a7OWt1ybNXPwBuGpzJDWM2TpM3lDSmJXN3EfOWO97caaePMsqOd5sfNZugUW7gsCgE/L1PWHIru2YNDtM12G0rY7FleCZDf747Fgsipp6xs1WNNwJnJ/PJwuoVrnrcSGlSoBUeeU6NJl12B6cg//5psM1JE/SyGrae1Hd3otjcaXibyIQN/hniOfddBswev+hpOmvORAlOYeXFf4oyDWLL22VHwTtSwJzvqXx2y2wBml0p1Zh8eZAvOMZadY2mg5YBMcv51OEA79Dlys6C6afp6PTI6IA9I0t3anD5Ywa0W4I46x0NkkSH5jUSqYnl7/Ve8NlSTSUtYjxfzKhDC86B2HpzmDx1E90CzCX8C/fDDk/l9PG7gHT08/4nJ735W5heMU5GCE59eCudD41uwUWve1HootkUEno4/9KGvnkTCBlCrx/Zu245YruAc5g73pGyMDvCctDW+8NaLLrwU3C85sCJNOHANuuycT3PgkSumFq/cdHYhFV3IzmngFs0WRJetenR2Jl9jN1X3DWYRoaOe7rDkYhu65TyeXLD+ndg1GgnXU2sXzeeeHtFljtvTewU5stsTxmuCgx3LnLu5xRK8somQo5dR3jPOGcDc8klsugkX/OpYa21mdH40SXgQmn2ux6caASQBQP8U2vwefHYiUJ9YczSShr6RFXyOu7wwSE5NrTG29sXMqTK9qwZn+k+LbIzSegLW3cpX7jk4ClLsHYry/AdYU/LEvPY+3n7BZY5Cn9eiEVy3foQH8SPfCWtqGRezgSV4pnN/nj32cS0TxhGWrvG8IPZxJlmdmiyUZT9yD2hOWLsb32QCRii5snsRUIGroZ3vYY2wzQzqrvHJDlkR733y+njQM/d5/VV3slYYJp9xfTahTlNlIeYKsmC6+56rDF3zrHsKX9Zc3n7BZYtZ39+P50glBYjkYX4eZty305NNwPRhfj2Y3++PVyOnpujN+u07u9yiMCr7gE43JqtfjH1p+Ix3NOAfCMKJxye8/l0lmbjWc2+OE/F1LFe+9tKJHd5LrDMeO+x7mprfcmvjmdKAb8maQKRVQYyiLtC83Dazt0wp6gJMB8anYLLO7YvjkVjxU7Q3BMIbBomBMgBBaVX3qHx892NR39eG13mGznIwrqUdfZj48Ox+K5jQEIzmmYNFsZB5SzFgHyzz/98K1PkgAyIKNagPXWgUjQ/2TaOgaG8cO5JAHWyfgyRRlEBJZH2Biw/nM+RRy4psee6+d2CyyZsXwSsNIKYPU9AhZdDb+bcawStCvdCSwtQnLqJImBRjn1sUi4uz1FOj6X2FOJZfjHn374/kwSWq/dwKWUSgEWDW1zwPru7BiwTsWXSczRUkAIsELzxBT438VUFViWdtxMn+P2nO4CzlhMMuDyZmnjZ72ii/HPDX6S2j5xR9l6/SY+OBwtM9bxuBIwSP3zuRRxfP7pny6UY3PnqrjSi5/OJ2PRZo2wI/g9qvpR9OPLE/GTdq40wL86xSXWH2eTKxUthbxmJo3QxqS7gsmu86nZ7YzFQduqyQSzVxgI5vJmaWPg1zuhTGym73wSxOlpuiHrHryFzQGZslujHcelkUowDHS/5KqFd3wZyI0yNhri5F7tiyzEC9sDxZsfnNsgMT06X0kpdgsZv8Gg64Fe+U+OxgoR0DejBiNTzITG85g+ktXwx+V0sbH2hOaK1pfp+3P93G6B1T0wJNts7rh+PJesiNxHIGhz60Wtj2n39GKb+pjIYqB26FJXHV5xDUZ4QaPYWZv8M8VFQRbnrpA8RBU1S9KEvrARWwOzJCDN2Yl6V5xRuWwyFMTIAIVw6bsyNoaLGAKiL40hqdjSFighaNHwX+9tENB6x5Uo+mEZr2E2H+0WWH3Dd3Ca3u2tgaCYbJdCXlJGdTs+PhwjMx5dD6aDzg7nzvDrE/HigP3WJ17oznl1nbIDozee8UDKSK7cM0YVpstgiatOXAC1Hb3CSf/aOw6LnPxlGZ14fcMjo+LCYAD9K2+DOGSVDDSBSzYFHaT0kZFOM5+a3QKLO7DQvHoRTlu9L0ICwabL2UydzKWLWlncGf73YqrwrEzdkzx+WF6DeOYpzsawD7+jy6nH254RQnt5yTlIQj58JLC+OB4nXC2em/bWtyfj8Z23YdJsxeskM4P2Fb31HvoCRaQ/zrhkpXJpJrASylpw7/7fs+FM9/403rdbYDHXnIFnRvg5a8SXTnZaTteBpMMwlPPStiC866mXrJuJQrOcFT0jC/GWezg4azE+dyK+DK+5hYhKMnMKX3HVCk2Y4CL1JrakWU5LYDIeWdzUgzt3xw86z63JrMEbe0MFGJFFzYpUlJm0wR+V3PvuMFS09U53q3Pynv0CC5BZimoyJNsdiy1WTHgj1eXfpxPx/OYA/PdCyjgHpnE0KFLrl1mN+PIW2Xn95puB57cE4IvjsVjrFSXA+uRIDNYejMTLLkHwiil+TFGm3TYRrDyuzFYk+23R4NeLaWK/Gc9nySN3hNxtElhfnIgDd7Hzrdk1sDr6b8JFmy189299Esft1CzpaDIO/NJrhOvOYPCFlMpJtspDsDoF073uo76zD+tPxguwduly8QO5V1s1wtFihjQ1uH73y5h2I8HcQrJeuZtlNhCXW24WlLT6rgHZTdI+89DnT3s+Jce15WftGljDd+4iKLv2cYZOYVOP2Rliug6r6+jHhktpIsPNRNCkijazA03mJ5NYGZR+dVcwLqRVideeYZ69EQU4HFsiO8DPjxmEh047aGIjtYXHoPQ3Nx0ugdmg2K6Sxutg+v6ru0JkSY4uajJ7vUqOORuftWtgcfAIplX79JICT80EJY5SdqgkZFReEaoxl8T1J+KEtTBxCeOs4q4vEHLdN6cMSKm6gi1BOeJkPRhbgoiiJlkOWcniUnr14+XQOGjMSKMtxAICPA8NfbImJp7H+PmpHsnzPxxTJE7XtV7RQseZDOGpvv30XrdrYLGbrvYNyVJEzYRvfRIUE/54DKr8abLrhPW51iMCyeWtkulsOgy0ayg0Qq/6gchCMcw3BGQ9BhZp0hv9M4T37qLLmRT3I4BZ3Om9fazBo5fCATTClbaq9j58ejRWnLcu2px5uQzynuweWMYdEndodDRyaVDiwTYOLPlcdJRG5DfIYJmuZORJlbb0yK6PgWg6PhmOYQD7mY1+2B9djM7BYRyOKRZmw/enE8VBajqT8HhkjSZXtMpSecMKyUrmMgZl1+Fll2C8sTcMBoU7YeO9Po1HuwcWO4mqMF+eMIh2w5+X04XtqbjzHkIMdHOzCA13ajfQg84dKDUUuCT95Z8hwKKNxRQsbU691OB5/0AU4kpaJi1zBBqPpXT5M94LA+8/UVJ8exB+PJeCqyZhJeNn5sujQwCLrALfjGrZaVEfQRJXFcTdZhoMerU3arJkQP9zLlnsmt6h2/jz0YzlFp4vfDCmia2XZSoYnpFFk7z5M51nuvd5jwQ3lQppx4XmNTyRTNN057LFew4BLM4EZJR+dcIgO7N/nYpHnei426KLAOYffnbcILSZIzFFwlIgbcUUWIO3RkQ9cGdwDp4l0e98iiJW60xXyk3KJ0dj5P5+Pp+i2LUy0/Ft/b5DAIudQqG04Nx68cK/uF0LEue4XD1pE6O7uh1ve0TKoLJaF1+jMW8KLOb6cZmjfNGzmwIkDsnahKbBbWuvhXFGJtbSocpwEkvS3Rudf2n1pvfnMMDiTdFLvk2TJbYWVfYMZdzdjQ+nmN68Jc/pRGW9Har1UQO0oGlMFpucc1NgGWk79DFx10eHK90fT3p+ujmoKvgGGa0uWtGJUJI4Ysk9zsZnHApYzL6hb2jtoSjRR//+TCJKW689Ub8RMAz3MDF2g2/6Y32IqYBFzarfLqYKK+IvvwxwibS2cYmnaO4X3nGS+PGFt0F0Vm0xC1p7TZZ+z6GAxZtm8Dcwu052cFw6NgRkyq7R0g4x/RwHkDsxEQ3ZopFMaKMDdipgMXBNyUhmAH3ubZD8QnNeeNPzTPW8vK1XmBd0qL67P1J8X086A051Llu/7nDAYgcxHsdybYzHvbRdKx5zpnQpbRzEmOJm8RmRe5Vc2fbYZpoKWEx1Z8IqP8/wT1wpKS3K7SHywciMFaLg7lBJSp1vnKvp+tMhgWXkO+3QjhUSeG1niHjLr07IkpmuY/jezdv3cCi6SGSKuCOjd93YpgIW3y9uvibJq0zN8oouGpeoavz+dI8k8ZGhyiDzMtexhNT5xmmf7vr5nkMCizdG+4T8KXLXGe6hlhWTTilQa2njbuzfZ5MkUXVHcM64Lb4RWEzIcAvLH0cNJoDdQnLFzvrpfIrFYRcuvWVt17EtiMp/weKz2qnLVazrYOn9zebnHBZY7DTaNhwoaiiQG794UwB802os6k8OMlPnV5OJsC1IUupNvfLcmW0MHIsVTgQWQ0oMvTy/RYP3DkYJ7dgSbzt5WtuDskXvgXKSpObQxrPH5tDAMg5IVXsvDkQU4pezyUgsazW+PO0jNwEhuXUiQ8k4ZG5D97gCScxNdAoyDyweOL2mXWgtlISkdpclnKuKtusiG/DOPr0UQ2Bqv722BQEsDg495ayrY2lpOc5I1CNlpYv1x2MnLaE83uMZK3T8Usjz0U76n4jQarHBP9MiNRjKBCSUt8nur2sexwEtAfuCAZYlnWH6GaZXfXI0Tuyrw1GTq25RkWazlnwsX7hNABbJeDTgmS5Gmg3p08yDXEhNBZaZ0aY9RNmiFW6hkh7PKhBU6jNNiiDt5TGwwsaC0Cy9QkDGFLdgg18GXnXTiaN2lbseSeVtkzheZk7tMC+pwDIzlHSCsjbzkh3BAow33cOxyS8D2pwGFDb3SNIFl8qtwblCm6G/ia4ISlfS+F7uFipUZwr98xh8PBBZpJjdaubS7OYlFVhmhorp6yysxGoXLBnH+od0WbywLVDihcyQCcmtF/luevcZcqE9tXzXGKAYV2T2D31gf15OE7rNZycM6LCiYICZy7OLl1RgmRkmbvFXe+oFWJSJZDD5d990UOGYSaJ0P1C4lsDj3wuPQMeZiXUFKWXEgpkUg9Pl1guw3tinF7trvonQmrl9m7ykAmtCNzKMk1jeKoK2XNIyaq5KvRruAvMaOnEyvhTfnEqQWYzLHBNVGb6hTCQFbes6+8S1YKQ25zd2y2cJSFant3RXOuGy7O5fFVgThoy8dOb9kaLCjBrWwDE27vaYwkVXAGOI/2KO4WaNiPmTe0Xf18SAM2N+lJ2kJ52O2p55phVqvDdbP6rAmtCjzdduiH20xDlYFGRI6DPXOINt1eaI9gN1HabiSBGo1NhiLUWK/durJ91cH0z3mgosk95hfJFiG9wFUpg/MLNuSv10uhtcdHl4dmMAXHW5k0TVjIelTgOXVi6br7mFIqniyoJwO6jAMiJAuFz3RGzDWPuQ2g5TkeroIHV+BCyX4NxJArkmh5VZirMVtRa4zBrZpqafcbTnKrBMRpRshr1heWKQ0z3AyqpTNSXA4nK6K5Q0GB2oMUEnqqM3FVgmI0xJSO7uSBCkfNF02vF0ohqXwplmLBr1+oJGkQFY4RYmsgAKi8CaXKV9PFWB9WicuJvLqumQ3RtDOTPlJt4euYedobSx/DETsHgKFiAfc7RqhVIzPM8U+GwNVxVYj3qUmcwsDM7CS+94Ro6JbRidUWZ6nTSYXWH5FgOLNQWZxcyEU5IPTcVxzRze7l9SgfVoCOlvYjUuhm7+awHrk8DaSWBt8oeLbnrjnacgJYaaqbSzmBtILXlHbiqwHo0uM43pZqCH3NtQiuE70yvBmM5YpBLPxEkfs7MaJCBNJWbqcFmTZGEvYFSB9UgjixnOzIh5y0OPjKqrMxbVNAUWpbjb+83v9OiuYGmTgMxa8cDTlfGSi1acpnSyOmpTgfWIXUr/Ems0f3Y8zqI8REuAxRT/2JIWOGmysGpfuBQsYPCaBTJZDpgqOY7aVGABqO3sE9oLaTFve+qxP6oIcWUtwvqcykFKYO3RF4icNo3xqyYMUe74KLLG99cdjBYDn4CiUo1TQCbIoV+5Jww5CmtB2xMIVWABSKuh6Icei7cFifAGq0us84rEpoBMKW9CAh+1Qk0zbQgs94iCsbo5ssu7ibujo0IE9IotwXrvOJkBucv8yjtOmA9lLdekEAGzmqlxRQG3iSV97Qk8013rggcWU7UCs2ploKkX/8vFFPzrhAHU2WK9Z4rXfnAwUlwEPkkVYnSzkMDgrbtwjxxTgPn9crqI+LNoOOUqqaS8eLNGJB1ZDCq3vvOxyiDdDtSUoL68S1D2pIpg0w2WPb234IFFhZp9+jwRnF1/0gCZVeo7QZBsDcwWEVp64p/5y0+WPVZY5S7wVGK5JLNy+Vx7MAr/OmkQjz3rRa85EClFmVKrroKCaaaNafJHYoolgZYqzcXNY+o1pp9xhOcLHlhUMv7eJx5LXIKkrAndAmy0rZjtnFXTjtNJFZJxw3AP08E4k9HQNzJIuZt81slfhEhob7HSxFQ7ProYSB58yyNClI+jS5RVpbAX0C14YJHGsmJXCN7x0EOf32DWt0Q6MYHCouTHDaX4wy8Dnx6LlaQJ2kqsBsblzTezVjS6SL+ZrlHp+eOjsWKfkXVKzpajtQUNLBrgF1OrRen4s6OxQiueyAA1HXBGeGjAU380vfoqfjqXLAxSJk4UNlqu3scA9ubALMlZZJinuv1vlqrp+ez5+YIGFnVLSRdmSV6GcZSIpFGaku4EfnejX4aiChMj9+5Dl1uHN/eO1Z1Oqrxizxgye+0LGlgZNe1STYIyR0diixXJOtK1QLVkxgo3BWRI4SWzPWzmRc56rK5K453A9MuoVSx1ZOaw8+qlBQss2kHUZada3geHopFWdWWcn2qmURoZHcVufb7Uc/7LjxKSyrzotNkoQfnC1kC4anMUzXgzXdt8eH/BAoskPlaS+OdfrDhPVqcybQUCi4UDCEyWhqP2qJJ25959HI4tlmoaHx2Jdjgv/IIFFrUYfr+UJomn23Q5UFqCRGas8AJxoFoDrNH7D2AoacZ7+yOwxFWLsIJGRTOmEhDPxWcXLLAo1f2Op14MaFaoH70/k5Ng/PAwsZVV662dsXg2Zkt/edIg4DwaVwJqbjlKW5DA4mxBMNGxSTdDTl3npETTmQaYroeDMcVYtMW6pZDHZ5yQ4m303v9yIQVVV+dfCd6Z+mGq9xcksGg479MXiAf95wspUCp6a+zMgzElJsBS7ouiF/5yRrXMmm/uDRfRNeOx7f1xQQKL+YI/nE4UGvK+iEJFbgbTAR83Y7UrM955HIaNWK7u86Ox4na4kFpt9bWYXtd8eL4ggUUd9tXu4RLG0eXVj9MWVTIoRmBRwqim3bpl7Nade/jfhVQJcrsG5+KKwt2pkut9mp9dcMCifXUyoVyYCqwWllvfYTY+aMkgmAKLu0xr2u2RUZGaZBLH+uNxYu9Zc5z59p0FByxqgW4JyJKdGCuy/n4xTYpWUtSDajJKmrXAYjySu8r6zih8vckAAA+HSURBVD4cM5RizcEo4YNR4SYou17JJczbzy44YGXXduDrEwbRYF+0JVAG9L0DkWBBpZD8ekmK4KxmSfOKo/GuwS/nU0SjdKbvcCfJOGFF2zUciSvBN6fipWIrj7F4m0bK0VE2XEnMcqZzztX7Cw5Yl9JrRJyDZLztgVnC+KQvioNLvvuvl9Lgm14jPqaZ0rO8DKXCy5oJWPRZkUlBJumhmGKwUCd5789t9JdydU4BGfjGJx4v0u1wPkUKmc8VIGx13gUFLKrp7Q7Lxz/+8MVvl9IkEMxg8OX0GslSJtf9eacAKcr0nwspOJ1cIcJrU81gMwLr4VjBKOYQMqn1s2NxAmqeg2lmu0PzEF3cItVhz6dWYdXeMOHes9ClvbcFBSzaNBStpd7CnvCCx7KNXJ4qr1yHJrsOf1xOl6RVfoash5/PpcAnsVwoy7SLTNvxhDJZSn8+myTLm/E9sheYQk8hkC1B2fiQ9ROd/MWl8NHhaHhEFCC+rFVIgcbvFDZ1yRLNmdMnucLqDYXxeHP9uKCAFVvcjHUHI2X54ZI4MbWLMxM1RHV5DcLTYrkSct1f3REsKn/ehjIptMmdHBt571Tq+/FMosx+fI2JFqyjw+LkrMj6zw3+WOSkwdfeBhwzlIE8eHNykXTabgnMEjuL8t72ru2wYIBF0HjHl+Fl57FtPbnsU7WHeCj8KgLMOShblifypgiir0/G41BMCbJqO6RS/SsuWjHCtTm10GTXYoNfpnjSWRXsJWetAPJE/BggJyZWmJ6f13fUUCrFpAjC7LpO07ft7vmCARazkrcGZUsYZ6N/psUlSDr6b0ptG9fgHKz1ihSeOgVtvzgeJ+ldr7hqJctZOPC7QvDMhjGDnFXsOaMx6+fuvfFL6FQoYdb0uoNRksHjm1GjOH451XHn4vUFAyyGTr47nSC7v0OxJYoZm92DQ1ItlbbZJ0djRe6IAGOmzqKtgeIXI9WYijWX0qtFD2umXeXEAWdZOeYokiPG81Chxl7bggAW/Udh+Q14z0MvO6+w/Earx4s+JtpJHvpCrDsUjRe3BwpZj7tIbU6d2FhKHa3Gi+Emwi2sAP/801fCPPassLwggMXdnFdUsWQff38qQTJqjINp7SPzD/dHFwnl5YvjsZIraO2xTL/HTcWynTqpgqEvbDZ9y66eLwhgdQ0OS8kSzgSsWnptcNgmg3Ty0a7w25PxyG/osskxKQf+nQ8LEwRgf3Sx4jCTTS7CBgdxeGAxLlfQ2AUGnJ/b5A+fxIpJbgZr+5HAYklgWwKr58Ywtmuz8I8/LssOk1oP9tgcHljMYqYOwxt7QrF6nx5RxbbzahtnLMb8bDVj0T47mVgmm4MvjsWJHJIy0vT8gKHDA4sxuk2aLMl2/u1iGlgf2lbtb2AZbAYsXhtDQB8dihaREVvOsLa6b0uO49DA4m6QorXfn06ULbxXVJFNq0LMFrBYGOov33QJPTkH59il28GhgcWYXUJZCz6QciNaBObU4z7RZqNmBBargLHUr63ajdsjOBBVJFnWrBxW09FrNcvVVtek9DgODSy6GQ7Hlsj2ndk4WTYOk5xKrMArLsH4yjve5sxPhpNYqfX9A5GILGqy2YZDKUCs/bxDA4vFkP70yxAqzDZNliJ9BUs69GxKpQSov/I22BxYeXWd+OaEQeomHqDbwULyoSXX/TQ+47DAInOBTM31ZItu1uBUYhmG7tg2RHIutQrLdgQLV51BaVu2zr6b4nNj7PHXS+lTCrnZ8py2PJbDAotxurC8BqGuLN8dipiSVlv2mxyLwHrVNRjr6RawMbB4AnrhqWbz2bFY5Nd32tVy6LDAYtyN/PFlO4PxjmeEMBTIIKVBb6tmBNYXR2NtCiz+KCieeyalEi+6BIHJrL4iA2AZF99W9/ckx3FYYJE4x8Aw0+jJQFh7KFqyn6m8R4BNJPlZ04lGYNlqxiKgSAKMKmrGxoBMrPLQ4wXnIBEu2RyY/Vh52ZprfdrfcUhg3X/wQLb/Hx6OEWAtcdVJsHipazDWeUVjd1ge8hq6QKH/J5nBTG0sa5dCzp8EFEum6HLrRQHHKHy7eFuglPwlXZkEw8bufrvhaDkksEZG78M/vVooMqvcw0S839tQIpJBtFnI+iTodunyQFW/gdsjVs1gj4FlpY3F8A0duH4ZNZKdw7IoLDhAwdyvTxpwIaVS2KosHEW3Q1RRk90EpR0SWJyJWFWCIv1Mp6pp75Mq85xVmH7FQWKyBLOPCTAXXQ5YfYLuCSVLpBFYnx2NQWqV5Tqi90bHuPXMzCHTlFXHFjkFyJL379NJuJRWg6LmHgzdviuPdMAymZUzLQXb7KE5JLCY7UyWJ3nqR2OLBVTGwaDtlV7TjqOxJfj0SIzsupjPRz3Q7UHZiC5pQt/wHVjioKcU0vKdOnxyKBqpFTMDixXtS1p6RMmPHvXX94SKj23pDp0sgcwSou68afXVjoEhuIfnyb1845MAUqXtoTkcsGivpFa0SQIEdaco5m/OjhoYHgGzoil49qV3nNhgnDXWHIyEszYHcSXN6BoYmnYGu5xWI97xT6lhOg2wSDFm8oZnZJEkXnAzwSWZVGaWpNPlNkile177xMaSLCxJx6xt2odMerWWoTrx2LP5v8MBizu+Y3ElMuAsRcICl9M1Uo05WBTy//ZUAhZv0cjswPgiBz00vwHtfTdB+s3ERmCx+MAnh6ORYkZSu+/mbSSUtWFveIEkX7CaxbMb/PGupx6uulxxgZDnbg74pudKrWYli3Ch/lxIqZI0fdP35+NzhwMWl7ofzyXjxW1B2BbIMI5lorVcfoqaunE6sUJStlgGjrMKq4Jt1mSJwjJzBk1tMCOwPj4UjeTKNhlfLqFcriILm7BDl4cPvWJkuXveyR8fH4mGZ0QRYktacbX/pkXLLQ9KtsOfl9OkRAo1JjjbzvfmUMDioFNucY1XlCwdJPgpzXRh4JqFkyh1RDtoyY5gMfTf2BsmAAvOrUdjz4AsR9RnZ6CYM1ZieSva+4cQnt+I7YHZeNdDL6lmBDjliTwjC5FU2YaBW8rDSoO37+JMUoVkGNF2ZEb3dBU05gPoHApY9LZHFDaKp/o1txCpQ2iJEW5uIGjvlDT3wDuhDD+fSwYNbMbtXt8dKjvO0PxGWeJWuIXKrEbeFPUZ3nIPlywbJreyFAptONpXN26PrwJm7pxTvUYQxZa2SgIsWbC0/yam+0/13bl63aGAxRo1+yMK8NoOHb70Nkhu35N2LEubUNeBAiHUcVi2SydL5Bt7wsQvtmxnCF521YoM0TOb/PHaLh1+OJuEo4YSkYEk2G3RippZySJKKEAHIovmfQFNhwIW9Q44S7y8XYs9obkzVpZXMuBcZus7+wVgP51LEVcBcwqZRs8az2+4h4lPigCkbKStZxQK8LrpcvHi1kB8fzrJrP6DkvuZ7c86DLAYxilq6sFqzwhxNIbm1osmla07kAzUxq5+kT768mS86DnQH7U/shBt1wfHGfe2PDfdDiF5DWI7vuMZieLmazPuJm15fqXHchhgMYFUl1MnWclcnmxJFTbXqXQR0EO+wi1EEh8Sy2xPy5l4XrpOuImgXXcptWpeL4cOAyxqiLpos8FA83c+CRKDmzgwtv6f6jJMK2NGTVL5mLvB1ucwPR7dHUyyYC4jdb6u3bhl+va8eu4wwKK/ik5Nhmec/DJQ3NQD1l+ezfY0gWX0s20LzARZD+8eiJTCUJPdtrN5x5Yf22GAVdPRh3WeEY9jb9Re98+oBYsF8Jc9k3fb8i77+5MUWHtzTxg+9pqdGYvXzGsvb7sOTWYtfjmfDLpRFm3W4AMvFiqfv3aWwwCLZeLOJJbj86NxUvR7iWuwGNZURHYPz0dWTQeu9t3E8CM1vr/hYf0zZtKwEIGtgXVrZBTtfUPIqL4K97B8rPWKkt0nfWP0o/EeKeZGNsZ8bQ4DLDpCh++MSgiHXHeGPt72jMDSHWMAW7ojRDzp9JzXdw9IWIQ7ySdpBBYdoh96RQnt5kmOxdmJP476rgGE5jWK64LKyqT2LHEJFjbpL5dTocuuQ0vPoCzz1jp/n+Q6Lf2uwwDL9IbJWeISwqpeXtFF+PhILJbs0EmsjWxSqu8diSlGQUOXZL/QCWpNMwLr/QMRiC21TnKIbgTGN6kyczyuBJ8fixVlZXLJCKiPD8dgf2SBSFPynrj7tYfmkMAydvyozAJ3Uds5AG12vaTaMzRD0hwFa8kp/+1yGvT5jSIdSWNfiS1mBNa7HhHCUzeed6ZHMiV4LlZ1ZbD6N990rNqnx1JXrWikcpb97mQ8NBm1MoNxyVPzCmfq1Tl6n7UBr/YNIaXiCnaH5GHtgchHdksQVtBuORYndBvGB8kesMRzrhRYPCZpOtSWP27g7BSH5W6hQpWmB5/ZRDtDcpFedVVK3ZkS/uao26w+rUPPWOZ6hcFlLillrdfhm16NH88kSZUIhkpo06w5EAUnTRYo3U0eFpceU6qM6TEtARa/y6WWG4eY4mZsC8oGeWI8FwuNv+IaLNdwKa1adnm8Ns609t4WHLBMB+zmnbto7B5AQlkrdupysXJPGBZTsNZZi9X7wvHd6UScii+VGYb0m4nMzbCCBilNZ24p5NLF5a6mox/nU6qEI8ZqFFyGmTDx+t4wqV5vKG2Ra2AA3ZHaggaWcSA5izGAnVPfhXPJlcIk5dJENikrhNH4Jy2GnCvSlcldZ9MXNUhd6Xc9/7axeKzeG7dgKGmR2enTo7FYuSdUqM+kJDP7htyq3PoucSnw847YVGBNGFWS6iqv9CGsoEmKB7y5L1ycrtz2s7AT2alnkyrQ2DWA8PwGrNkfCQKLFGYGpy+kVuGXi6l4b78eL20LxPObAvCme5hUuggvbELllV5xK0w4rcP9qwJriiHlrMRsH2b0nIgvFX4X7TCmja10C8X3ZxJFN56zEY1/ZtBw6eT/LMJE+4lJGvxuUuUVUbpx1NnJXBeqwDLXKxNe6x++I4Z1cG4DtgVmgzV2yIdncsRLzkFgdQpmBPG1FbtD4OSficCsWpCcN5+94xNu06b/qsBS0J3crZFhEF3SIvyrr07Eie+J4SNqvbOqF+tNN3UPWOSuUHBqu/uoCiyrhuyheMtpgDOhwjejVjzjPXYqnW1VF8zwJRVYM3TQTG+TUTqVn2um7zry+yqwHHl05/DeVGDNYec78qlVYDny6M7hvanAmsPOd+RTq8By5NGdw3tTgTWHne/Ip1aB5cijO4f3pgJrDjvfkU+tAsuRR3cO700F1hx2viOfWgWWI4/uHN6bCqw57HxHPrUKLEce3Tm8t/8H94ts3L18f6QAAAAASUVORK5CYII=;" parent="1" vertex="1">
          <mxGeometry x="266.77" y="282.6" width="83.23" height="103.2" as="geometry" />
        </mxCell>
        <mxCell id="RRCWeZ-eteyDnXMSMMr3-7" value="" style="shape=image;html=1;verticalAlign=top;verticalLabelPosition=bottom;labelBackgroundColor=#ffffff;imageAspect=0;aspect=fixed;image=https://cdn0.iconfinder.com/data/icons/construction-2-21/512/construction-industry-building-08-128.png" parent="1" vertex="1">
          <mxGeometry x="180" y="414.3" width="60" height="60" as="geometry" />
        </mxCell>
        <mxCell id="RRCWeZ-eteyDnXMSMMr3-9" value="" style="shape=image;html=1;verticalAlign=top;verticalLabelPosition=bottom;labelBackgroundColor=#ffffff;imageAspect=0;aspect=fixed;image=https://cdn0.iconfinder.com/data/icons/star-wars/512/r2d2-128.png;fontColor=#7EA6E0;" parent="1" vertex="1">
          <mxGeometry x="400" y="424.3" width="50" height="50" as="geometry" />
        </mxCell>
        <mxCell id="RRCWeZ-eteyDnXMSMMr3-10" value="" style="verticalAlign=top;verticalLabelPosition=bottom;labelPosition=center;align=center;html=1;outlineConnect=0;fillColor=#dae8fc;strokeColor=#6c8ebf;gradientDirection=north;strokeWidth=2;shape=mxgraph.networks.security_camera;" parent="1" vertex="1">
          <mxGeometry x="290" y="429.3" width="60" height="45" as="geometry" />
        </mxCell>
        <mxCell id="RRCWeZ-eteyDnXMSMMr3-11" value="" style="aspect=fixed;html=1;points=[];align=center;image;fontSize=12;image=img/lib/mscae/Data_Factory.svg;" parent="1" vertex="1">
          <mxGeometry x="150" y="140" width="50" height="50" as="geometry" />
        </mxCell>
        <mxCell id="RRCWeZ-eteyDnXMSMMr3-16" value="" style="endArrow=none;dashed=1;html=1;rounded=0;edgeStyle=orthogonalEdgeStyle;fontColor=#7EA6E0;exitX=0.5;exitY=0;exitDx=0;exitDy=0;strokeWidth=2;" parent="1" source="RRCWeZ-eteyDnXMSMMr3-7" edge="1">
          <mxGeometry width="50" height="50" relative="1" as="geometry">
            <mxPoint x="260" y="404.3" as="sourcePoint" />
            <mxPoint x="310" y="386.8" as="targetPoint" />
          </mxGeometry>
        </mxCell>
        <mxCell id="RRCWeZ-eteyDnXMSMMr3-17" value="" style="endArrow=none;dashed=1;html=1;rounded=0;edgeStyle=orthogonalEdgeStyle;fontColor=#7EA6E0;strokeWidth=2;exitX=0.5;exitY=0;exitDx=0;exitDy=0;" parent="1" source="RRCWeZ-eteyDnXMSMMr3-9" edge="1">
          <mxGeometry width="50" height="50" relative="1" as="geometry">
            <mxPoint x="380" y="400" as="sourcePoint" />
            <mxPoint x="310" y="380" as="targetPoint" />
            <Array as="points">
              <mxPoint x="425" y="399.8" />
              <mxPoint x="310" y="399.8" />
            </Array>
          </mxGeometry>
        </mxCell>
        <mxCell id="RRCWeZ-eteyDnXMSMMr3-19" value="" style="endArrow=none;dashed=1;html=1;dashPattern=1 3;strokeWidth=3;rounded=0;edgeStyle=orthogonalEdgeStyle;fontColor=#7EA6E0;" parent="1" edge="1">
          <mxGeometry width="50" height="50" relative="1" as="geometry">
            <mxPoint x="310" y="426.8" as="sourcePoint" />
            <mxPoint x="309.5" y="396.8" as="targetPoint" />
            <Array as="points">
              <mxPoint x="310" y="416.8" />
            </Array>
          </mxGeometry>
        </mxCell>
        <mxCell id="RRCWeZ-eteyDnXMSMMr3-24" value="&lt;font face=&quot;Times New Roman&quot; color=&quot;#000000&quot; size=&quot;1&quot;&gt;&lt;b style=&quot;font-size: 24px&quot;&gt;Smart Factory&lt;/b&gt;&lt;/font&gt;" style="text;html=1;resizable=0;autosize=1;align=center;verticalAlign=middle;points=[];fillColor=none;strokeColor=none;rounded=0;fontColor=#7EA6E0;" parent="1" vertex="1">
          <mxGeometry x="90" y="200" width="170" height="20" as="geometry" />
        </mxCell>
        <mxCell id="RRCWeZ-eteyDnXMSMMr3-26" value="&lt;font face=&quot;Times New Roman&quot; color=&quot;#000000&quot; style=&quot;font-size: 24px&quot;&gt;Actuator&lt;/font&gt;" style="text;html=1;resizable=0;autosize=1;align=center;verticalAlign=middle;points=[];fillColor=none;strokeColor=none;rounded=0;shadow=0;fontColor=#7EA6E0;" parent="1" vertex="1">
          <mxGeometry x="160" y="479.3" width="100" height="20" as="geometry" />
        </mxCell>
        <mxCell id="RRCWeZ-eteyDnXMSMMr3-27" value="&lt;font color=&quot;#000000&quot; face=&quot;Times New Roman&quot; style=&quot;font-size: 24px&quot;&gt;Sensor&lt;/font&gt;" style="text;html=1;resizable=0;autosize=1;align=center;verticalAlign=middle;points=[];fillColor=none;strokeColor=none;rounded=0;shadow=0;fontColor=#7EA6E0;" parent="1" vertex="1">
          <mxGeometry x="268.38" y="479.3" width="80" height="20" as="geometry" />
        </mxCell>
        <mxCell id="RRCWeZ-eteyDnXMSMMr3-28" value="&lt;font color=&quot;#000000&quot; face=&quot;Times New Roman&quot; style=&quot;font-size: 24px&quot;&gt;Mobile Robots&lt;/font&gt;" style="text;html=1;resizable=0;autosize=1;align=center;verticalAlign=middle;points=[];fillColor=none;strokeColor=none;rounded=0;shadow=0;fontColor=#7EA6E0;" parent="1" vertex="1">
          <mxGeometry x="350" y="479.3" width="160" height="20" as="geometry" />
        </mxCell>
        <mxCell id="RRCWeZ-eteyDnXMSMMr3-29" value="&lt;font color=&quot;#000000&quot; face=&quot;Times New Roman&quot; style=&quot;font-size: 24px&quot;&gt;Edge Sever&lt;/font&gt;" style="text;html=1;resizable=0;autosize=1;align=center;verticalAlign=middle;points=[];fillColor=none;strokeColor=none;rounded=0;shadow=0;fontColor=#7EA6E0;" parent="1" vertex="1">
          <mxGeometry x="375" y="282.6" width="130" height="20" as="geometry" />
        </mxCell>
        <mxCell id="RRCWeZ-eteyDnXMSMMr3-31" value="&lt;font color=&quot;#000000&quot; face=&quot;Times New Roman&quot; style=&quot;font-size: 24px&quot;&gt;AP&lt;/font&gt;" style="text;html=1;resizable=0;autosize=1;align=center;verticalAlign=middle;points=[];fillColor=none;strokeColor=none;rounded=0;shadow=0;fontColor=#7EA6E0;" parent="1" vertex="1">
          <mxGeometry x="336.38" y="330" width="50" height="20" as="geometry" />
        </mxCell>
        <mxCell id="oOrtPrmwSs8rOd87lDA_-3" value="" style="endArrow=classic;html=1;strokeColor=#007FFF;strokeWidth=3;" edge="1" parent="1">
          <mxGeometry width="50" height="50" relative="1" as="geometry">
            <mxPoint x="312" y="297" as="sourcePoint" />
            <mxPoint x="312" y="260" as="targetPoint" />
            <Array as="points" />
          </mxGeometry>
        </mxCell>
        <mxCell id="RRCWeZ-eteyDnXMSMMr3-2" value="" style="outlineConnect=0;fillColor=#1ba1e2;strokeColor=#006EAF;dashed=0;verticalLabelPosition=bottom;verticalAlign=top;align=center;html=1;fontSize=12;fontStyle=0;aspect=fixed;pointerEvents=1;shape=mxgraph.aws4.traditional_server;fontColor=#ffffff;" parent="1" vertex="1">
          <mxGeometry x="417" y="200" width="40.38" height="70" as="geometry" />
        </mxCell>
        <mxCell id="oOrtPrmwSs8rOd87lDA_-5" value="" style="endArrow=classic;html=1;strokeColor=#007FFF;strokeWidth=3;" edge="1" parent="1">
          <mxGeometry width="50" height="50" relative="1" as="geometry">
            <mxPoint x="338" y="234.41" as="sourcePoint" />
            <mxPoint x="413" y="234.41" as="targetPoint" />
            <Array as="points" />
          </mxGeometry>
        </mxCell>
      </root>
    </mxGraphModel>
  </diagram>
</mxfile>
